<?xml version="1.0" encoding="utf-8"?>
<!-- Generator: Adobe Illustrator 26.3.1, SVG Export Plug-In . SVG Version: 6.00 Build 0)  -->
<svg version="1.1" id="Layer_1" xmlns="http://www.w3.org/2000/svg" xmlns:xlink="http://www.w3.org/1999/xlink" x="0px" y="0px"
	 viewBox="0 0 316.3 123.3" style="enable-background:new 0 0 316.3 123.3;" xml:space="preserve">
<style type="text/css">
	.st0{fill:#1F9397;}
	.st1{fill:#B83C00;}
	.st2{fill:#EC9900;}
	.st3{fill:#033148;}
	.st4{fill:#982020;}
	.st5{fill:#EE8500;}
	.st6{opacity:0.6;fill:#E9D7A2;enable-background:new    ;}
	.st7{fill:#AB1D00;}
	.st8{fill:#98D2BD;}
	.st9{font-family:'SignPainter-HouseScript';}
	.st10{font-size:60px;}
	.st11{letter-spacing:-1;}
	.st12{fill:none;stroke:#4D4D4D;stroke-width:0.5;stroke-miterlimit:10;}
	.st13{letter-spacing:-2;}
	.st14{fill:#E9D7A2;}
	.st15{fill:#0A6075;}
</style>
<g>
	<circle class="st0" cx="75.2" cy="10.7" r="5"/>
	<circle class="st1" cx="44.5" cy="105.8" r="5"/>
	<circle class="st0" cx="44.4" cy="10.8" r="5"/>
	<circle class="st2" cx="75.5" cy="105.8" r="5"/>
	<circle class="st3" cx="19.5" cy="29" r="5"/>
	<circle class="st4" cx="100.5" cy="87.6" r="5"/>
	<circle class="st5" cx="10" cy="58.4" r="5"/>
	<circle class="st6" cx="109.9" cy="58.2" r="5"/>
	<circle class="st7" cx="19.6" cy="87.9" r="5"/>
	<circle class="st8" cx="100.3" cy="29" r="5"/>
</g>
<text transform="matrix(1 0 0 1 33.57 72.84)" class="st5 st9 st10 st11">L</text>
<text transform="matrix(1 0 0 1 33.57 72.84)" class="st12 st9 st10 st11">L</text>
<text transform="matrix(1 0 0 1 53.55 72.84)" class="st7 st9 st10">A</text>
<text transform="matrix(1 0 0 1 53.55 72.84)" class="st12 st9 st10">A</text>
<text transform="matrix(1 0 0 1 79.65 72.84)" class="st3 st9 st10 st13">R</text>
<text transform="matrix(1 0 0 1 79.65 72.84)" class="st12 st9 st10 st13">R</text>
<text transform="matrix(1 0 0 1 104.73 72.84)" class="st0 st9 st10">R</text>
<text transform="matrix(1 0 0 1 104.73 72.84)" class="st12 st9 st10">R</text>
<text transform="matrix(1 0 0 1 131.61 72.84)" class="st8 st9 st10">Y </text>
<text transform="matrix(1 0 0 1 131.61 72.84)" class="st12 st9 st10">Y </text>
<text transform="matrix(1 0 0 1 167.55 72.84)" class="st1 st9 st10 st11">D</text>
<text transform="matrix(1 0 0 1 167.55 72.84)" class="st12 st9 st10 st11">D</text>
<text transform="matrix(1 0 0 1 195.33 72.84)" class="st2 st9 st10">a</text>
<text transform="matrix(1 0 0 1 195.33 72.84)" class="st12 st9 st10">a</text>
<text transform="matrix(1 0 0 1 219.75 72.84)" class="st4 st9 st10">t</text>
<text transform="matrix(1 0 0 1 219.75 72.84)" class="st12 st9 st10">t</text>
<text transform="matrix(1 0 0 1 232.59 72.84)" class="st14 st9 st10">a</text>
<text transform="matrix(1 0 0 1 232.59 72.84)" class="st12 st9 st10">a</text>
<text transform="matrix(1 0 0 1 257.01 72.84)" class="st15 st9 st10">s</text>
<text transform="matrix(1 0 0 1 257.01 72.84)" class="st12 st9 st10">s</text>
<text transform="matrix(1 0 0 1 275.01 72.84)" class="st0 st9 st10">e</text>
<text transform="matrix(1 0 0 1 275.01 72.84)" class="st12 st9 st10">e</text>
<text transform="matrix(1 0 0 1 294.15 72.84)" class="st3 st9 st10">t</text>
<text transform="matrix(1 0 0 1 294.15 72.84)" class="st12 st9 st10">t</text>
</svg>
