<?xml version="1.0" encoding="utf-8"?>
<!-- Generator: Adobe Illustrator 26.3.1, SVG Export Plug-In . SVG Version: 6.00 Build 0)  -->
<svg version="1.1" id="Layer_1" xmlns="http://www.w3.org/2000/svg" xmlns:xlink="http://www.w3.org/1999/xlink" x="0px" y="0px"
	 viewBox="0 0 316.3 123.3" style="enable-background:new 0 0 316.3 123.3;" xml:space="preserve">
<style type="text/css">
	.st0{fill:#1F9397;}
	.st1{fill:#B83C00;}
	.st2{fill:#EC9900;}
	.st3{fill:#033148;}
	.st4{fill:#982020;}
	.st5{fill:#EE8500;}
	.st6{opacity:0.6;fill:#E9D7A2;enable-background:new    ;}
	.st7{fill:#AB1D00;}
	.st8{fill:#98D2BD;}
	.st9{font-family:'SignPainter-HouseScript';}
	.st10{font-size:60px;}
	.st11{fill:none;stroke:#4D4D4D;stroke-width:0.5;stroke-miterlimit:10;}
	.st12{fill:#E9D7A2;}
	.st13{fill:#0A6075;}
</style>
<g>
	<circle class="st0" cx="-261.1" cy="10.7" r="5"/>
	<circle class="st1" cx="-291.8" cy="105.8" r="5"/>
	<circle class="st0" cx="-291.9" cy="10.8" r="5"/>
	<circle class="st2" cx="-260.8" cy="105.8" r="5"/>
	<circle class="st3" cx="-316.8" cy="29" r="5"/>
	<circle class="st4" cx="-235.8" cy="87.6" r="5"/>
	<circle class="st5" cx="-326.3" cy="58.4" r="5"/>
	<circle class="st6" cx="-226.4" cy="58.2" r="5"/>
	<circle class="st7" cx="-316.7" cy="87.9" r="5"/>
	<circle class="st8" cx="-236" cy="29" r="5"/>
</g>
<text transform="matrix(1 0 0 1 -302.73 72.84)" class="st5 st9 st10">L</text>
<text transform="matrix(1 0 0 1 -302.73 72.84)" class="st11 st9 st10">L</text>
<text transform="matrix(1 0 0 1 -282.75 72.84)" class="st7 st9 st10">A</text>
<text transform="matrix(1 0 0 1 -282.75 72.84)" class="st11 st9 st10">A</text>
<text transform="matrix(1 0 0 1 -256.65 72.84)" class="st3 st9 st10">R</text>
<text transform="matrix(1 0 0 1 -256.65 72.84)" class="st11 st9 st10">R</text>
<text transform="matrix(1 0 0 1 -231.57 72.84)" class="st0 st9 st10">R</text>
<text transform="matrix(1 0 0 1 -231.57 72.84)" class="st11 st9 st10">R</text>
<text transform="matrix(1 0 0 1 -204.69 72.84)" class="st8 st9 st10">Y </text>
<text transform="matrix(1 0 0 1 -204.69 72.84)" class="st11 st9 st10">Y </text>
<text transform="matrix(1 0 0 1 -168.75 72.84)" class="st1 st9 st10">D</text>
<text transform="matrix(1 0 0 1 -168.75 72.84)" class="st11 st9 st10">D</text>
<text transform="matrix(1 0 0 1 -140.97 72.84)" class="st2 st9 st10">a</text>
<text transform="matrix(1 0 0 1 -140.97 72.84)" class="st11 st9 st10">a</text>
<text transform="matrix(1 0 0 1 -116.55 72.84)" class="st4 st9 st10">t</text>
<text transform="matrix(1 0 0 1 -116.55 72.84)" class="st11 st9 st10">t</text>
<text transform="matrix(1 0 0 1 -103.71 72.84)" class="st12 st9 st10">a</text>
<text transform="matrix(1 0 0 1 -103.71 72.84)" class="st11 st9 st10">a</text>
<text transform="matrix(1 0 0 1 -79.29 72.84)" class="st13 st9 st10">s</text>
<text transform="matrix(1 0 0 1 -79.29 72.84)" class="st11 st9 st10">s</text>
<text transform="matrix(1 0 0 1 -61.29 72.84)" class="st0 st9 st10">e</text>
<text transform="matrix(1 0 0 1 -61.29 72.84)" class="st11 st9 st10">e</text>
<text transform="matrix(1 0 0 1 -42.15 72.84)" class="st3 st9 st10">t</text>
<text transform="matrix(1 0 0 1 -42.15 72.84)" class="st11 st9 st10">t</text>
<g>
	<g>
		<circle class="st0" cx="74.6" cy="14.1" r="5"/>
		<circle class="st1" cx="43.9" cy="109.2" r="5"/>
		<circle class="st0" cx="43.8" cy="14.2" r="5"/>
		<circle class="st2" cx="74.9" cy="109.2" r="5"/>
		<circle class="st3" cx="18.9" cy="32.4" r="5"/>
		<circle class="st4" cx="99.9" cy="91" r="5"/>
		<circle class="st5" cx="9.4" cy="61.8" r="5"/>
		<circle class="st6" cx="109.3" cy="61.6" r="5"/>
		<circle class="st7" cx="19" cy="91.3" r="5"/>
		<circle class="st8" cx="99.7" cy="32.4" r="5"/>
	</g>
	<text transform="matrix(1 0 0 1 32.955 76.24)" class="st5 st9 st10">L</text>
	<text transform="matrix(1 0 0 1 32.955 76.24)" class="st11 st9 st10">L</text>
	<text transform="matrix(1 0 0 1 52.935 76.24)" class="st7 st9 st10">A</text>
	<text transform="matrix(1 0 0 1 52.935 76.24)" class="st11 st9 st10">A</text>
	<text transform="matrix(1 0 0 1 79.035 76.24)" class="st3 st9 st10">R</text>
	<text transform="matrix(1 0 0 1 79.035 76.24)" class="st11 st9 st10">R</text>
	<text transform="matrix(1 0 0 1 104.115 76.24)" class="st0 st9 st10">R</text>
	<text transform="matrix(1 0 0 1 104.115 76.24)" class="st11 st9 st10">R</text>
	<text transform="matrix(1 0 0 1 130.995 76.24)" class="st8 st9 st10">Y </text>
	<text transform="matrix(1 0 0 1 130.995 76.24)" class="st11 st9 st10">Y </text>
	<text transform="matrix(1 0 0 1 166.935 76.24)" class="st1 st9 st10">D</text>
	<text transform="matrix(1 0 0 1 166.935 76.24)" class="st11 st9 st10">D</text>
	<text transform="matrix(1 0 0 1 194.715 76.24)" class="st2 st9 st10">a</text>
	<text transform="matrix(1 0 0 1 194.715 76.24)" class="st11 st9 st10">a</text>
	<text transform="matrix(1 0 0 1 219.135 76.24)" class="st4 st9 st10">t</text>
	<text transform="matrix(1 0 0 1 219.135 76.24)" class="st11 st9 st10">t</text>
	<text transform="matrix(1 0 0 1 231.975 76.24)" class="st12 st9 st10">a</text>
	<text transform="matrix(1 0 0 1 231.975 76.24)" class="st11 st9 st10">a</text>
	<text transform="matrix(1 0 0 1 256.395 76.24)" class="st13 st9 st10">s</text>
	<text transform="matrix(1 0 0 1 256.395 76.24)" class="st11 st9 st10">s</text>
	<text transform="matrix(1 0 0 1 274.395 76.24)" class="st0 st9 st10">e</text>
	<text transform="matrix(1 0 0 1 274.395 76.24)" class="st11 st9 st10">e</text>
	<text transform="matrix(1 0 0 1 293.535 76.24)" class="st3 st9 st10">t</text>
	<text transform="matrix(1 0 0 1 293.535 76.24)" class="st11 st9 st10">t</text>
</g>
</svg>
